<?xml version="1.0" standalone="no"?><!DOCTYPE svg PUBLIC "-//W3C//DTD SVG 1.1//EN" "http://www.w3.org/Graphics/SVG/1.1/DTD/svg11.dtd"><svg t="1627892153421" class="icon" viewBox="0 0 1024 1024" version="1.1" xmlns="http://www.w3.org/2000/svg" p-id="1302" xmlns:xlink="http://www.w3.org/1999/xlink" width="200" height="200"><defs><style type="text/css"></style></defs><path d="M415.3 896a67.948 67.948 0 0 1-53.42-26.33 63.385 63.385 0 0 1-10.79-55.98l56.53-216.36-93.57-37.63c-33.58-13.45-49.89-51.58-36.44-85.15a65.474 65.474 0 0 1 11.82-19.12L560.7 150.27A64 64 0 0 1 608.74 128c20.89 0.11 40.58 9.81 53.38 26.33a63.446 63.446 0 0 1 10.79 55.98l-56.53 216.36 93.57 37.46c33.58 13.45 49.89 51.58 36.44 85.15a65.474 65.474 0 0 1-11.82 19.12L463.34 873.73A64.015 64.015 0 0 1 415.3 896z m194.26-702.21L338.37 498.9l147.16 58.88-71.08 272.43L685.67 525.1l-147.16-58.88 71.05-272.43z" p-id="1303"></path></svg>