<svg t="1627898655050" class="icon" viewBox="0 0 1024 1024" version="1.1" xmlns="http://www.w3.org/2000/svg" p-id="5838" width="200" height="200"><path d="M746.656 469.344c-153.6 0-277.344 123.744-277.344 277.344s123.744 277.344 277.344 277.344S1024 900.288 1024 746.688s-123.744-277.344-277.344-277.344z m0 469.312c-106.656 0-192-85.344-192-192s85.344-192 192-192 192 85.344 192 192-85.344 192-192 192z" p-id="5839"></path><path d="M768 640h-85.344v170.656h170.656v-85.344h-85.344zM128 426.656h448c51.2-25.6 110.944-42.656 170.656-42.656 51.2 0 102.4 12.8 149.344 34.144v-76.8H128v85.344zM128 128v85.344h768V128H128z m0 512h273.056c8.544-29.856 21.344-59.744 38.4-85.344H128V640z m0 128v85.344h273.056c-8.544-25.6-12.8-55.456-12.8-85.344H128z" p-id="5840"></path></svg>