<?xml version="1.0" standalone="no"?><!DOCTYPE svg PUBLIC "-//W3C//DTD SVG 1.1//EN" "http://www.w3.org/Graphics/SVG/1.1/DTD/svg11.dtd"><svg t="1627289670215" class="icon" viewBox="0 0 1024 1024" version="1.1" xmlns="http://www.w3.org/2000/svg" p-id="673" xmlns:xlink="http://www.w3.org/1999/xlink" width="200" height="200"><defs><style type="text/css">@font-face { font-family: feedback-iconfont; src: url("//at.alicdn.com/t/font_1031158_1uhr8ri0pk5.eot?#iefix") format("embedded-opentype"), url("//at.alicdn.com/t/font_1031158_1uhr8ri0pk5.woff2") format("woff2"), url("//at.alicdn.com/t/font_1031158_1uhr8ri0pk5.woff") format("woff"), url("//at.alicdn.com/t/font_1031158_1uhr8ri0pk5.ttf") format("truetype"), url("//at.alicdn.com/t/font_1031158_1uhr8ri0pk5.svg#iconfont") format("svg"); }
</style></defs><path d="M375.253333 512H101.546667a37.333333 37.333333 0 1 0 0 74.666667h273.706666a37.333333 37.333333 0 1 0 0-74.666667zM375.253333 698.666667H101.546667a37.333333 37.333333 0 1 0 0 74.666666h273.706666a37.333333 37.333333 0 1 0 0-74.666666zM375.253333 885.333333H101.546667a37.333333 37.333333 0 1 0 0 74.666667h273.706666a37.333333 37.333333 0 1 0 0-74.666667zM922.666667 64H101.333333A37.333333 37.333333 0 0 0 64 101.333333v273.706667a37.333333 37.333333 0 0 0 37.333333 37.333333h821.333334A37.333333 37.333333 0 0 0 960 375.04V101.333333A37.333333 37.333333 0 0 0 922.666667 64zM885.333333 337.706667h-746.666666V138.666667h746.666666zM866.346667 813.44a224 224 0 1 0-52.906667 52.693333L896 949.12A37.333333 37.333333 0 0 0 949.12 896zM580.266667 789.333333a148.053333 148.053333 0 1 1 209.066666 0 147.626667 147.626667 0 0 1-209.066666 0z" p-id="674"></path></svg>